<svg xmlns="http://www.w3.org/2000/svg" viewBox="0 0 681.5589575977165 244.43135999999998" height="100" width="150"><g transform="matrix(1,0,0,1,0,74.27749676339326)"><svg viewBox="0 0 395.52 95.87636647321347" height="95.87636647321347" width="395.52"><g id="textblocktransform"><svg viewBox="0 0 395.52 95.87636647321347" height="95.87636647321347" width="395.52" id="textblock"><g><svg viewBox="0 0 395.52 70.49864890580399" height="70.49864890580399" width="395.52"><g transform="matrix(1,0,0,1,0,0)"><svg width="395.52" viewBox="-0.37 -31.88 230.91 41.16" height="70.49864890580399" data-palette-color="#004973"><path d="M3.32-27.78L3.32-1.2Q4.71-0.32 6.49 0.12 8.28 0.56 10.03 0.56L10.03 0.56Q13.26 0.56 16.02-0.88 18.77-2.32 20.42-5.05 22.07-7.79 22.07-11.52L22.07-11.52Q22.07-14.58 21.08-16.94 20.09-19.31 18.31-20.63 16.53-21.95 14.18-21.95L14.18-21.95Q12.23-21.95 10.52-20.95 8.81-19.95 7.23-18.16L7.23-18.16 6.96-18.16 7.3-20.73 7.3-30.88 6.71-31.45-0.05-30.93-0.37-29.08 3.32-27.78ZM7.3-16.41Q9.52-18.75 12.52-18.75L12.52-18.75Q14.48-18.75 15.63-17.4 16.77-16.04 17.24-14.05 17.7-12.06 17.7-9.96L17.7-9.96Q17.7-7.35 16.99-5.59 16.28-3.83 15.09-2.98 13.89-2.12 12.45-2.12L12.45-2.12Q10.86-2.12 9.45-2.59 8.03-3.05 7.3-3.78L7.3-3.78 7.3-16.41ZM27.15-17.77L27.15-6.52Q27.15-2.78 28.6-1.11 30.05 0.56 32.59 0.56L32.59 0.56Q36.98 0.56 39.57-3.2L39.57-3.2 39.89-3.2 39.89-2.98Q39.89-1.39 40.81-0.42 41.72 0.56 43.48 0.56L43.48 0.56Q44.55 0.56 45.29 0.46 46.02 0.37 47.17 0.1L47.17 0.1 47.39-1.93 46.26-2.17Q45.26-2.39 44.75-2.64 44.24-2.88 43.93-3.48 43.63-4.08 43.63-5.25L43.63-5.25 43.63-20.97 43.11-21.56 35.94-20.9 35.69-18.65 39.57-17.63 39.57-4.66Q38.69-3.76 37.63-3.27 36.57-2.78 35.03-2.78L35.03-2.78Q31.27-2.78 31.27-7.74L31.27-7.74 31.27-20.97 30.66-21.56 24.12-21.04 23.78-19.12 27.15-17.77ZM54.49-26.12Q55.27-26.12 55.96-26.53 56.66-26.93 57.06-27.61 57.47-28.3 57.47-29.1L57.47-29.1Q57.47-30.27 56.59-31.08 55.71-31.88 54.49-31.88L54.49-31.88Q53.32-31.88 52.45-31.09 51.58-30.3 51.58-29.15L51.58-29.15Q51.58-28.34 51.97-27.65 52.36-26.95 53.03-26.54 53.71-26.12 54.49-26.12L54.49-26.12ZM48.68 0L60.4 0 60.66-1.95 56.76-2.83 56.76-21 56.15-21.61 49.29-21.04 48.97-19.19 52.66-17.85 52.66-2.83 48.97-1.93 48.68 0ZM61.17 0L72.84 0 73.14-1.95 69.26-2.83 69.26-31.13 68.64-31.71 61.61-31.18 61.32-29.32 65.18-28 65.18-2.83 61.44-1.93 61.17 0ZM77.16-18.63L77.07-6.35Q77.04-2.54 78.42-0.99 79.8 0.56 82.27 0.56L82.27 0.56Q84.32 0.56 86.03-0.39 87.73-1.34 88.88-3.03L88.88-3.03 88.37-4.35Q88.37-4.32 87.8-3.96 87.22-3.59 86.44-3.28 85.66-2.98 84.85-2.98L84.85-2.98Q83.56-2.98 82.78-3.42 82-3.86 81.63-4.91 81.26-5.96 81.26-7.79L81.26-7.79 81.34-18.58 88.08-18.58 88.3-20.73 81.39-20.73 81.39-26.54 80.09-26.54Q78.77-24.73 77.16-22.95 75.55-21.17 74.06-19.95L74.06-19.95 74.06-18.63 77.16-18.63ZM99.99-27.78L99.99-1.2Q101.38-0.32 103.16 0.12 104.94 0.56 106.7 0.56L106.7 0.56Q109.92 0.56 112.68-0.88 115.44-2.32 117.09-5.05 118.74-7.79 118.74-11.52L118.74-11.52Q118.74-14.58 117.75-16.94 116.76-19.31 114.98-20.63 113.19-21.95 110.85-21.95L110.85-21.95Q108.9-21.95 107.19-20.95 105.48-19.95 103.89-18.16L103.89-18.16 103.62-18.16 103.96-20.73 103.96-30.88 103.38-31.45 96.62-30.93 96.3-29.08 99.99-27.78ZM103.96-16.41Q106.19-18.75 109.19-18.75L109.19-18.75Q111.14-18.75 112.29-17.4 113.44-16.04 113.9-14.05 114.36-12.06 114.36-9.96L114.36-9.96Q114.36-7.35 113.66-5.59 112.95-3.83 111.75-2.98 110.56-2.12 109.12-2.12L109.12-2.12Q107.53-2.12 106.11-2.59 104.7-3.05 103.96-3.78L103.96-3.78 103.96-16.41ZM123.93 9.28Q125.84 9.28 127.18 8.57 128.52 7.86 129.69 6.15 130.87 4.44 132.14 1.29L132.14 1.29 140.22-18.51 142.68-19.51 142.85-21.31 134.5-21.31 134.16-19.48 137.36-18.46 132.09-5.42 127.11-18.58 130.21-19.51 130.43-21.31 120.17-21.31 119.9-19.43 122.93-18.51 129.89 0 129.4 1.2Q128.52 3.37 127.48 4.05 126.45 4.74 125.23 4.74L125.23 4.74Q124.27 4.74 123.41 4.43 122.54 4.13 121.54 3.44L121.54 3.44Q120.76 4.13 120.47 4.83 120.17 5.54 120.17 6.37L120.17 6.37Q120.17 7.08 120.65 7.75 121.13 8.42 121.99 8.85 122.86 9.28 123.93 9.28L123.93 9.28ZM153.47-27.78L153.47-1.2Q154.86-0.32 156.64 0.12 158.42 0.56 160.18 0.56L160.18 0.56Q163.41 0.56 166.16-0.88 168.92-2.32 170.57-5.05 172.22-7.79 172.22-11.52L172.22-11.52Q172.22-14.58 171.23-16.94 170.24-19.31 168.46-20.63 166.68-21.95 164.33-21.95L164.33-21.95Q162.38-21.95 160.67-20.95 158.96-19.95 157.37-18.16L157.37-18.16 157.11-18.16 157.45-20.73 157.45-30.88 156.86-31.45 150.1-30.93 149.78-29.08 153.47-27.78ZM157.45-16.41Q159.67-18.75 162.67-18.75L162.67-18.75Q164.63-18.75 165.77-17.4 166.92-16.04 167.38-14.05 167.85-12.06 167.85-9.96L167.85-9.96Q167.85-7.35 167.14-5.59 166.43-3.83 165.24-2.98 164.04-2.12 162.6-2.12L162.6-2.12Q161.01-2.12 159.6-2.59 158.18-3.05 157.45-3.78L157.45-3.78 157.45-16.41ZM177.42 9.28Q179.32 9.28 180.66 8.57 182.01 7.86 183.18 6.15 184.35 4.44 185.62 1.29L185.62 1.29 193.7-18.51 196.17-19.51 196.34-21.31 187.99-21.31 187.65-19.48 190.84-18.46 185.57-5.42 180.59-18.58 183.69-19.51 183.91-21.31 173.66-21.31 173.39-19.43 176.42-18.51 183.37 0 182.89 1.2Q182.01 3.37 180.97 4.05 179.93 4.74 178.71 4.74L178.71 4.74Q177.76 4.74 176.89 4.43 176.02 4.13 175.02 3.44L175.02 3.44Q174.24 4.13 173.95 4.83 173.66 5.54 173.66 6.37L173.66 6.37Q173.66 7.08 174.13 7.75 174.61 8.42 175.48 8.85 176.34 9.28 177.42 9.28L177.42 9.28ZM199.97-18.63L199.87-6.35Q199.85-2.54 201.23-0.99 202.61 0.56 205.08 0.56L205.08 0.56Q207.13 0.56 208.83-0.39 210.54-1.34 211.69-3.03L211.69-3.03 211.18-4.35Q211.18-4.32 210.6-3.96 210.03-3.59 209.25-3.28 208.47-2.98 207.66-2.98L207.66-2.98Q206.37-2.98 205.59-3.42 204.81-3.86 204.44-4.91 204.07-5.96 204.07-7.79L204.07-7.79 204.15-18.58 210.89-18.58 211.11-20.73 204.2-20.73 204.2-26.54 202.9-26.54Q201.58-24.73 199.97-22.95 198.36-21.17 196.87-19.95L196.87-19.95 196.87-18.63 199.97-18.63ZM222.5 0.73Q224.9 0.73 226.98-0.13 229.07-1 230.54-2.54L230.54-2.54 230.02-3.83Q228.83-3.2 227.92-2.91 227.02-2.61 226.34-2.55 225.65-2.49 224.48-2.49L224.48-2.49Q222.33-2.49 220.83-3.72 219.33-4.96 218.55-6.88 217.77-8.81 217.67-10.86L217.67-10.86 229.49-11.01Q229.63-11.65 229.76-12.63 229.88-13.62 229.88-14.18L229.88-14.18Q229.88-16.67 229.01-18.42 228.14-20.17 226.65-21.06 225.17-21.95 223.36-21.95L223.36-21.95Q220.92-21.95 218.6-20.56 216.28-19.17 214.8-16.55 213.32-13.94 213.32-10.45L213.32-10.45Q213.32-6.91 214.62-4.37 215.91-1.83 218.02-0.55 220.14 0.73 222.5 0.73L222.5 0.73ZM222.16-19.56Q225.53-19.56 225.53-15.01L225.53-15.01Q225.53-14.65 225.49-14.12 225.46-13.6 225.39-13.33L225.39-13.33 217.72-12.77Q217.84-15.01 218.51-16.54 219.18-18.07 220.16-18.81 221.14-19.56 222.16-19.56L222.16-19.56Z" opacity="1" transform="matrix(1,0,0,1,0,0)" fill="#004973" class="wordmark-text-0" data-fill-palette-color="primary" id="text-0"/></svg></g></svg></g><g transform="matrix(1,0,0,1,163.310208,87.14168794489058)"><svg viewBox="0 0 232.209792 8.734678528322885" height="8.734678528322885" width="232.209792"><g transform="matrix(1,0,0,1,0,0)"><svg width="232.209792" viewBox="1 -38.9 1347.73 50.7" height="8.734678528322885" data-palette-color="#004973"><path d="M1 0L1-8.2 3.5-8.2 3.5-30.7 1-30.7 1-38.9 23.95-38.9Q30.2-38.9 33.7-36.35 37.2-33.8 37.2-29.05L37.2-29.05Q37.2-26.1 35.8-24.08 34.4-22.05 32.52-21.03 30.65-20 28.9-19.65L28.9-19.65 28.9-19.15Q32.45-18.8 35.3-16.9 38.15-15 38.15-10.1L38.15-10.1Q38.15-4.85 34.2-2.43 30.25 0 23.95 0L23.95 0 1 0ZM17.5-22.5L20.2-22.5Q21.65-22.5 22.38-23.28 23.1-24.05 23.1-25.7L23.1-25.7 23.1-27.5Q23.1-29.15 22.38-29.93 21.65-30.7 20.2-30.7L20.2-30.7 17.5-30.7 17.5-22.5ZM17.5-8.2L20.55-8.2Q22-8.2 22.73-8.97 23.45-9.75 23.45-11.4L23.45-11.4 23.45-13.6Q23.45-15.25 22.73-16.03 22-16.8 20.55-16.8L20.55-16.8 17.5-16.8 17.5-8.2ZM55.85-27.8L69.75-27.8 69.75-19.6 67.85-19.6 61.3-2.25Q58.85 4.3 55.7 7.58 52.55 10.85 47.4 10.85L47.4 10.85Q45.3 10.85 43.15 10.43 41 10 39.25 9.25L39.25 9.25 39.25 0.2 46.15 0.2 46.15 0.7Q46.15 1.95 47.45 1.95L47.45 1.95Q48.6 1.95 49.2 0.85L49.2 0.85 41.3-19.6 39.4-19.6 39.4-27.8 54.25-27.8 54.25-19.6 52.55-19.6 55.15-11.8 57.55-19.6 55.85-19.6 55.85-27.8ZM83.59 0.7Q78.3 0.7 75.62-1.88 72.94-4.45 72.94-10.55L72.94-10.55 72.94-19.6 70.75-19.6 70.75-27.8Q72.64-27.8 73.59-28.78 74.55-29.75 74.55-31.45L74.55-31.45 74.55-33.7 85.14-33.7 85.14-27.8 91.89-27.8 91.89-19.6 85.14-19.6 85.14-11.4Q85.14-9.75 85.87-8.97 86.59-8.2 88.05-8.2L88.05-8.2Q89.94-8.2 92.19-8.65L92.19-8.65 92.19-0.8Q90.8-0.25 88.42 0.23 86.05 0.7 83.59 0.7L83.59 0.7ZM108.69 0.7Q101.59 0.7 97.59-3.03 93.59-6.75 93.59-13.9L93.59-13.9Q93.59-21.05 97.59-24.78 101.59-28.5 108.69-28.5L108.69-28.5Q115.74-28.5 118.87-24.83 121.99-21.15 121.99-15.7L121.99-15.7 121.99-12.1 105.79-12.1 105.79-11.8Q105.79-9.95 106.89-9.08 107.99-8.2 110.54-8.2L110.54-8.2Q113.59-8.2 116.34-8.65 119.09-9.1 121.14-9.8L121.14-9.8 121.14-1.8Q119.39-0.85 116.02-0.08 112.64 0.7 108.69 0.7L108.69 0.7ZM105.79-17.6L111.59-17.6 111.59-18.2Q111.59-19.9 110.87-20.65 110.14-21.4 108.69-21.4L108.69-21.4Q107.24-21.4 106.52-20.63 105.79-19.85 105.79-18.2L105.79-18.2 105.79-17.6ZM159.94 0.7Q157.39 0.7 155.41-0.55 153.44-1.8 152.19-3.4L152.19-3.4 152.19 0 138.49 0 138.49-8.2 140.69-8.2 140.69-30.7 138.49-30.7 138.49-38.9 152.19-38.9 152.19-24.4Q153.44-26 155.41-27.25 157.39-28.5 159.94-28.5L159.94-28.5Q165.04-28.5 167.61-24.7 170.19-20.9 170.19-13.9L170.19-13.9Q170.19-6.9 167.61-3.1 165.04 0.7 159.94 0.7L159.94 0.7ZM155.09-8.2Q156.54-8.2 157.26-8.97 157.99-9.75 157.99-11.4L157.99-11.4 157.99-16.4Q157.99-18.05 157.26-18.82 156.54-19.6 155.09-19.6L155.09-19.6Q153.64-19.6 152.91-18.82 152.19-18.05 152.19-16.4L152.19-16.4 152.19-11.4Q152.19-9.75 152.91-8.97 153.64-8.2 155.09-8.2L155.09-8.2ZM187.78-27.8L201.69-27.8 201.69-19.6 199.78-19.6 193.24-2.25Q190.78 4.3 187.63 7.58 184.49 10.85 179.34 10.85L179.34 10.85Q177.24 10.85 175.09 10.43 172.94 10 171.19 9.25L171.19 9.25 171.19 0.2 178.09 0.2 178.09 0.7Q178.09 1.95 179.38 1.95L179.38 1.95Q180.53 1.95 181.13 0.85L181.13 0.85 173.24-19.6 171.34-19.6 171.34-27.8 186.19-27.8 186.19-19.6 184.49-19.6 187.09-11.8 189.49-19.6 187.78-19.6 187.78-27.8ZM218.28 0L218.28-8.2 220.78-8.2 220.78-30.7 218.28-30.7 218.28-38.9 241.23-38.9Q247.48-38.9 250.98-36.35 254.48-33.8 254.48-29.05L254.48-29.05Q254.48-26.1 253.08-24.08 251.68-22.05 249.81-21.03 247.93-20 246.18-19.65L246.18-19.65 246.18-19.15Q249.73-18.8 252.58-16.9 255.43-15 255.43-10.1L255.43-10.1Q255.43-4.85 251.48-2.43 247.53 0 241.23 0L241.23 0 218.28 0ZM234.78-22.5L237.48-22.5Q238.93-22.5 239.66-23.28 240.38-24.05 240.38-25.7L240.38-25.7 240.38-27.5Q240.38-29.15 239.66-29.93 238.93-30.7 237.48-30.7L237.48-30.7 234.78-30.7 234.78-22.5ZM234.78-8.2L237.83-8.2Q239.28-8.2 240-8.97 240.73-9.75 240.73-11.4L240.73-11.4 240.73-13.6Q240.73-15.25 240-16.03 239.28-16.8 237.83-16.8L237.83-16.8 234.78-16.8 234.78-8.2ZM273.13-27.8L287.03-27.8 287.03-19.6 285.13-19.6 278.58-2.25Q276.13 4.3 272.98 7.58 269.83 10.85 264.68 10.85L264.68 10.85Q262.58 10.85 260.43 10.43 258.28 10 256.53 9.25L256.53 9.25 256.53 0.2 263.43 0.2 263.43 0.7Q263.43 1.95 264.73 1.95L264.73 1.95Q265.88 1.95 266.48 0.85L266.48 0.85 258.58-19.6 256.68-19.6 256.68-27.8 271.53-27.8 271.53-19.6 269.83-19.6 272.43-11.8 274.83-19.6 273.13-19.6 273.13-27.8ZM300.88 0.7Q295.57 0.7 292.9-1.88 290.23-4.45 290.23-10.55L290.23-10.55 290.23-19.6 288.02-19.6 288.02-27.8Q289.93-27.8 290.88-28.78 291.82-29.75 291.82-31.45L291.82-31.45 291.82-33.7 302.43-33.7 302.43-27.8 309.18-27.8 309.18-19.6 302.43-19.6 302.43-11.4Q302.43-9.75 303.15-8.97 303.88-8.2 305.32-8.2L305.32-8.2Q307.23-8.2 309.48-8.65L309.48-8.65 309.48-0.8Q308.07-0.25 305.7 0.23 303.32 0.7 300.88 0.7L300.88 0.7ZM325.97 0.7Q318.87 0.7 314.87-3.03 310.87-6.75 310.87-13.9L310.87-13.9Q310.87-21.05 314.87-24.78 318.87-28.5 325.97-28.5L325.97-28.5Q333.02-28.5 336.15-24.83 339.27-21.15 339.27-15.7L339.27-15.7 339.27-12.1 323.07-12.1 323.07-11.8Q323.07-9.95 324.17-9.08 325.27-8.2 327.82-8.2L327.82-8.2Q330.87-8.2 333.62-8.65 336.37-9.1 338.42-9.8L338.42-9.8 338.42-1.8Q336.67-0.85 333.3-0.08 329.92 0.7 325.97 0.7L325.97 0.7ZM323.07-17.6L328.87-17.6 328.87-18.2Q328.87-19.9 328.15-20.65 327.42-21.4 325.97-21.4L325.97-21.4Q324.52-21.4 323.8-20.63 323.07-19.85 323.07-18.2L323.07-18.2 323.07-17.6ZM346.17 8.05L341.87 8.05 344.47 0 341.92 0 341.92-8.2 349.72-8.2 349.72 0 346.17 8.05ZM372.12 0L353.12 0 353.12-8.2 355.62-8.2 355.62-30.7 353.12-30.7 353.12-38.9 372.12-38.9 372.12-30.7 369.62-30.7 369.62-8.2 372.12-8.2 372.12 0ZM405.01-8.2L407.22-8.2 407.22 0 391.42 0 391.42-8.2 393.51-8.2 393.51-16.4Q393.51-18.05 392.81-18.82 392.12-19.6 390.72-19.6L390.72-19.6Q387.72-19.6 387.72-16.4L387.72-16.4 387.72-8.2 389.81-8.2 389.81 0 374.01 0 374.01-8.2 376.22-8.2 376.22-19.6 374.01-19.6 374.01-27.8 387.72-27.8 387.72-23.9Q391.31-28.5 396.72-28.5L396.72-28.5Q400.87-28.5 402.94-25.9 405.01-23.3 405.01-18.75L405.01-18.75 405.01-8.2ZM439.81-8.2L442.01-8.2 442.01 0 426.21 0 426.21-8.2 428.31-8.2 428.31-16.4Q428.31-18.05 427.61-18.82 426.91-19.6 425.51-19.6L425.51-19.6Q422.51-19.6 422.51-16.4L422.51-16.4 422.51-8.2 424.61-8.2 424.61 0 408.81 0 408.81-8.2 411.01-8.2 411.01-19.6 408.81-19.6 408.81-27.8 422.51-27.8 422.51-23.9Q426.11-28.5 431.51-28.5L431.51-28.5Q435.66-28.5 437.74-25.9 439.81-23.3 439.81-18.75L439.81-18.75 439.81-8.2ZM458.51 0.7Q451.41 0.7 447.41-3.03 443.41-6.75 443.41-13.9L443.41-13.9Q443.41-21.05 447.41-24.78 451.41-28.5 458.51-28.5L458.51-28.5Q465.71-28.5 469.66-24.73 473.61-20.95 473.61-13.9L473.61-13.9Q473.61-6.75 469.61-3.03 465.61 0.7 458.51 0.7L458.51 0.7ZM458.51-8.2Q459.96-8.2 460.69-8.97 461.41-9.75 461.41-11.4L461.41-11.4 461.41-16.4Q461.41-18.05 460.69-18.82 459.96-19.6 458.51-19.6L458.51-19.6Q457.06-19.6 456.34-18.82 455.61-18.05 455.61-16.4L455.61-16.4 455.61-11.4Q455.61-9.75 456.34-8.97 457.06-8.2 458.51-8.2L458.51-8.2ZM498.11 0L483.21 0 476.91-19.6 474.81-19.6 474.81-27.8 490.26-27.8 490.26-19.6 488.16-19.6 490.81-9.7 491.31-9.7 493.96-19.6 491.86-19.6 491.86-27.8 506.36-27.8 506.36-19.6 504.26-19.6 498.11 0ZM534.21-8.2L536.41-8.2 536.41 0 523.21 0 523.21-3.4Q522.11-1.8 520.13-0.55 518.16 0.7 515.31 0.7L515.31 0.7Q511.56 0.7 509.41-1.3 507.26-3.3 507.26-6.95L507.26-6.95Q507.26-16.4 523.31-16.65L523.31-16.65Q523.16-18.35 522.01-18.98 520.86-19.6 518.11-19.6L518.11-19.6Q515.86-19.6 513.28-19.13 510.71-18.65 508.56-17.85L508.56-17.85 508.56-27.05Q511.21-27.7 514.31-28.1 517.41-28.5 520.36-28.5L520.36-28.5Q527.81-28.5 531.01-25.8 534.21-23.1 534.21-17.45L534.21-17.45 534.21-8.2ZM523.21-11.4L523.21-11.7Q520.96-11.7 519.73-11.1 518.51-10.5 518.51-9.1L518.51-9.1Q518.51-8.25 519.03-7.73 519.56-7.2 520.51-7.2L520.51-7.2Q521.81-7.2 522.51-8.3 523.21-9.4 523.21-11.4L523.21-11.4ZM550.35 0.7Q545.05 0.7 542.38-1.88 539.7-4.45 539.7-10.55L539.7-10.55 539.7-19.6 537.5-19.6 537.5-27.8Q539.4-27.8 540.35-28.78 541.3-29.75 541.3-31.45L541.3-31.45 541.3-33.7 551.9-33.7 551.9-27.8 558.65-27.8 558.65-19.6 551.9-19.6 551.9-11.4Q551.9-9.75 552.63-8.97 553.35-8.2 554.8-8.2L554.8-8.2Q556.7-8.2 558.95-8.65L558.95-8.65 558.95-0.8Q557.55-0.25 555.18 0.23 552.8 0.7 550.35 0.7L550.35 0.7ZM573.15-30.55L562.95-30.55 562.95-38.9 573.15-38.9 573.15-30.55ZM576.45 0L560.55 0 560.55-8.2 562.75-8.2 562.75-19.6 560.55-19.6 560.55-27.8 574.25-27.8 574.25-8.2 576.45-8.2 576.45 0ZM608.85-8.2L611.05-8.2 611.05 0 595.25 0 595.25-8.2 597.35-8.2 597.35-16.4Q597.35-18.05 596.65-18.82 595.95-19.6 594.55-19.6L594.55-19.6Q591.55-19.6 591.55-16.4L591.55-16.4 591.55-8.2 593.65-8.2 593.65 0 577.85 0 577.85-8.2 580.05-8.2 580.05-19.6 577.85-19.6 577.85-27.8 591.55-27.8 591.55-23.9Q595.15-28.5 600.55-28.5L600.55-28.5Q604.7-28.5 606.77-25.9 608.85-23.3 608.85-18.75L608.85-18.75 608.85-8.2ZM627.29 11.8Q623.69 11.8 620.42 11.3 617.14 10.8 615.34 10.15L615.34 10.15 615.34 1.95Q620.64 2.9 624.84 2.9L624.84 2.9Q627.69 2.9 628.97 2.02 630.24 1.15 630.24-1.25L630.24-1.25 630.24-3.4Q628.99-1.8 627.02-0.55 625.04 0.7 622.49 0.7L622.49 0.7Q617.39 0.7 614.82-3.1 612.24-6.9 612.24-13.9L612.24-13.9Q612.24-20.9 614.82-24.7 617.39-28.5 622.49-28.5L622.49-28.5Q625.04-28.5 627.02-27.25 628.99-26 630.24-24.4L630.24-24.4 630.24-27.8 643.94-27.8 643.94-19.6 641.74-19.6 641.74-2Q641.74 5.25 638.14 8.53 634.54 11.8 627.29 11.8L627.29 11.8ZM627.34-8.2Q628.79-8.2 629.52-8.97 630.24-9.75 630.24-11.4L630.24-11.4 630.24-16.4Q630.24-18.05 629.52-18.82 628.79-19.6 627.34-19.6L627.34-19.6Q625.89-19.6 625.17-18.82 624.44-18.05 624.44-16.4L624.44-16.4 624.44-11.4Q624.44-9.75 625.17-8.97 625.89-8.2 627.34-8.2L627.34-8.2ZM672.69 0.7Q667.39 0.7 664.71-1.88 662.04-4.45 662.04-10.55L662.04-10.55 662.04-19.6 659.84-19.6 659.84-27.8Q661.74-27.8 662.69-28.78 663.64-29.75 663.64-31.45L663.64-31.45 663.64-33.7 674.24-33.7 674.24-27.8 680.99-27.8 680.99-19.6 674.24-19.6 674.24-11.4Q674.24-9.75 674.96-8.97 675.69-8.2 677.14-8.2L677.14-8.2Q679.04-8.2 681.29-8.65L681.29-8.65 681.29-0.8Q679.89-0.25 677.51 0.23 675.14 0.7 672.69 0.7L672.69 0.7ZM713.89-8.2L716.09-8.2 716.09 0 700.29 0 700.29-8.2 702.39-8.2 702.39-16.4Q702.39-18.05 701.69-18.82 700.99-19.6 699.59-19.6L699.59-19.6Q696.59-19.6 696.59-16.4L696.59-16.4 696.59-8.2 698.69-8.2 698.69 0 682.89 0 682.89-8.2 685.09-8.2 685.09-30.7 682.89-30.7 682.89-38.9 696.59-38.9 696.59-23.9Q698.44-26.2 700.59-27.35 702.74-28.5 705.59-28.5L705.59-28.5Q709.74-28.5 711.81-25.9 713.89-23.3 713.89-18.75L713.89-18.75 713.89-8.2ZM732.58 0.7Q725.48 0.7 721.48-3.03 717.48-6.75 717.48-13.9L717.48-13.9Q717.48-21.05 721.48-24.78 725.48-28.5 732.58-28.5L732.58-28.5Q739.63-28.5 742.76-24.83 745.88-21.15 745.88-15.7L745.88-15.7 745.88-12.1 729.68-12.1 729.68-11.8Q729.68-9.95 730.78-9.08 731.88-8.2 734.43-8.2L734.43-8.2Q737.48-8.2 740.23-8.65 742.98-9.1 745.03-9.8L745.03-9.8 745.03-1.8Q743.28-0.85 739.91-0.08 736.53 0.7 732.58 0.7L732.58 0.7ZM729.68-17.6L735.48-17.6 735.48-18.2Q735.48-19.9 734.76-20.65 734.03-21.4 732.58-21.4L732.58-21.4Q731.13-21.4 730.41-20.63 729.68-19.85 729.68-18.2L729.68-18.2 729.68-17.6ZM805.23-30.7L805.23-38.9 821.23-38.9 821.23-30.7 819.23-30.7 811.78 0 796.83 0 792.28-21.6 791.78-21.6 786.98 0 772.03 0 764.08-30.7 762.08-30.7 762.08-38.9 780.58-38.9 780.58-30.7 778.68-30.7 780.63-17.95 781.13-17.95 785.88-38.9 800.28-38.9 804.68-17.95 805.18-17.95 807.13-30.7 805.23-30.7ZM834.13 0.7Q827.03 0.7 823.03-3.03 819.03-6.75 819.03-13.9L819.03-13.9Q819.03-21.05 823.03-24.78 827.03-28.5 834.13-28.5L834.13-28.5Q841.33-28.5 845.28-24.73 849.23-20.95 849.23-13.9L849.23-13.9Q849.23-6.75 845.23-3.03 841.23 0.7 834.13 0.7L834.13 0.7ZM834.13-8.2Q835.58-8.2 836.3-8.97 837.03-9.75 837.03-11.4L837.03-11.4 837.03-16.4Q837.03-18.05 836.3-18.82 835.58-19.6 834.13-19.6L834.13-19.6Q832.68-19.6 831.95-18.82 831.23-18.05 831.23-16.4L831.23-16.4 831.23-11.4Q831.23-9.75 831.95-8.97 832.68-8.2 834.13-8.2L834.13-8.2ZM872.17-28.5Q873.17-28.5 874.07-28.3 874.97-28.1 875.57-27.8L875.57-27.8 875.57-18.25Q873.52-19.1 871.17-19.1L871.17-19.1Q868.02-19.1 866.32-17.45 864.62-15.8 864.62-12.55L864.62-12.55 864.62-8.2 869.12-8.2 869.12 0 850.92 0 850.92-8.2 853.12-8.2 853.12-19.6 850.92-19.6 850.92-27.8 864.62-27.8 864.62-24.15Q866.02-26.25 867.82-27.38 869.62-28.5 872.17-28.5L872.17-28.5ZM893.07 0.05L877.17 0.05 877.17-8.2 879.37-8.2 879.37-30.7 877.17-30.7 877.17-38.9 890.87-38.9 890.87-8.2 893.07-8.2 893.07 0.05ZM904.52 0.7Q899.42 0.7 896.84-3.1 894.27-6.9 894.27-13.9L894.27-13.9Q894.27-20.9 896.84-24.7 899.42-28.5 904.52-28.5L904.52-28.5Q907.07-28.5 909.04-27.25 911.02-26 912.27-24.4L912.27-24.4 912.27-30.7 909.32-30.7 909.32-38.9 923.77-38.9 923.77-8.2 925.97-8.2 925.97 0 912.27 0 912.27-3.4Q911.02-1.8 909.04-0.55 907.07 0.7 904.52 0.7L904.52 0.7ZM909.37-8.2Q910.82-8.2 911.54-8.97 912.27-9.75 912.27-11.4L912.27-11.4 912.27-16.4Q912.27-18.05 911.54-18.82 910.82-19.6 909.37-19.6L909.37-19.6Q907.92-19.6 907.19-18.82 906.47-18.05 906.47-16.4L906.47-16.4 906.47-11.4Q906.47-9.75 907.19-8.97 907.92-8.2 909.37-8.2L909.37-8.2ZM934.32-27.4L928.67-27.4 927.92-38.9 935.07-38.9 934.32-27.4ZM949.36 0.7Q943.06 0.7 937.21-1.3L937.21-1.3 937.21-8.7 945.31-8.7 945.31-8.2Q945.31-5.8 948.36-5.8L948.36-5.8Q951.06-5.8 951.06-7.65L951.06-7.65Q951.06-8.65 950.29-9.15 949.51-9.65 947.56-10L947.56-10 945.06-10.45Q937.21-11.85 937.21-19.35L937.21-19.35Q937.21-23.7 940.51-26.1 943.81-28.5 949.41-28.5L949.41-28.5Q955.66-28.5 959.96-26.4L959.96-26.4 959.96-19.45 952.36-19.45 952.36-19.95Q952.36-20.95 951.69-21.48 951.01-22 949.71-22L949.71-22Q947.21-22 947.21-20.4L947.21-20.4Q947.21-19.55 947.91-19.1 948.61-18.65 950.46-18.25L950.46-18.25 953.31-17.7Q957.76-16.85 959.66-14.55 961.56-12.25 961.56-8.65L961.56-8.65Q961.56-4.1 958.39-1.7 955.21 0.7 949.36 0.7L949.36 0.7ZM978.26 0L978.26-8.2 980.76-8.2 980.76-30.65 978.26-30.65 978.26-38.9 998.56-38.9Q1006.91-38.9 1011.83-34.33 1016.76-29.75 1016.76-19.45L1016.76-19.45Q1016.76-9.15 1011.83-4.58 1006.91 0 998.56 0L998.56 0 978.26 0ZM994.76-8.2L997.66-8.2Q999.36-8.2 1000.21-9.1 1001.06-10 1001.06-11.9L1001.06-11.9 1001.06-27Q1001.06-30.7 997.66-30.7L997.66-30.7 994.76-30.7 994.76-8.2ZM1030.96-30.55L1020.76-30.55 1020.76-38.9 1030.96-38.9 1030.96-30.55ZM1034.26 0L1018.36 0 1018.36-8.2 1020.56-8.2 1020.56-19.6 1018.36-19.6 1018.36-27.8 1032.06-27.8 1032.06-8.2 1034.26-8.2 1034.26 0ZM1050.3 11.8Q1046.7 11.8 1043.43 11.3 1040.15 10.8 1038.35 10.15L1038.35 10.15 1038.35 1.95Q1043.65 2.9 1047.85 2.9L1047.85 2.9Q1050.7 2.9 1051.98 2.02 1053.25 1.15 1053.25-1.25L1053.25-1.25 1053.25-3.4Q1052-1.8 1050.03-0.55 1048.05 0.7 1045.5 0.7L1045.5 0.7Q1040.4 0.7 1037.83-3.1 1035.25-6.9 1035.25-13.9L1035.25-13.9Q1035.25-20.9 1037.83-24.7 1040.4-28.5 1045.5-28.5L1045.5-28.5Q1048.05-28.5 1050.03-27.25 1052-26 1053.25-24.4L1053.25-24.4 1053.25-27.8 1066.95-27.8 1066.95-19.6 1064.75-19.6 1064.75-2Q1064.75 5.25 1061.15 8.53 1057.55 11.8 1050.3 11.8L1050.3 11.8ZM1050.35-8.2Q1051.8-8.2 1052.53-8.97 1053.25-9.75 1053.25-11.4L1053.25-11.4 1053.25-16.4Q1053.25-18.05 1052.53-18.82 1051.8-19.6 1050.35-19.6L1050.35-19.6Q1048.9-19.6 1048.18-18.82 1047.45-18.05 1047.45-16.4L1047.45-16.4 1047.45-11.4Q1047.45-9.75 1048.18-8.97 1048.9-8.2 1050.35-8.2L1050.35-8.2ZM1080.95-30.55L1070.75-30.55 1070.75-38.9 1080.95-38.9 1080.95-30.55ZM1084.25 0L1068.35 0 1068.35-8.2 1070.55-8.2 1070.55-19.6 1068.35-19.6 1068.35-27.8 1082.05-27.8 1082.05-8.2 1084.25-8.2 1084.25 0ZM1098 0.7Q1092.7 0.7 1090.02-1.88 1087.35-4.45 1087.35-10.55L1087.35-10.55 1087.35-19.6 1085.15-19.6 1085.15-27.8Q1087.05-27.8 1088-28.78 1088.95-29.75 1088.95-31.45L1088.95-31.45 1088.95-33.7 1099.55-33.7 1099.55-27.8 1106.3-27.8 1106.3-19.6 1099.55-19.6 1099.55-11.4Q1099.55-9.75 1100.27-8.97 1101-8.2 1102.45-8.2L1102.45-8.2Q1104.35-8.2 1106.6-8.65L1106.6-8.65 1106.6-0.8Q1105.2-0.25 1102.82 0.23 1100.45 0.7 1098 0.7L1098 0.7ZM1135.15-8.2L1137.35-8.2 1137.35 0 1124.15 0 1124.15-3.4Q1123.05-1.8 1121.07-0.55 1119.1 0.7 1116.25 0.7L1116.25 0.7Q1112.5 0.7 1110.35-1.3 1108.2-3.3 1108.2-6.95L1108.2-6.95Q1108.2-16.4 1124.25-16.65L1124.25-16.65Q1124.1-18.35 1122.95-18.98 1121.8-19.6 1119.05-19.6L1119.05-19.6Q1116.8-19.6 1114.22-19.13 1111.65-18.65 1109.5-17.85L1109.5-17.85 1109.5-27.05Q1112.15-27.7 1115.25-28.1 1118.35-28.5 1121.3-28.5L1121.3-28.5Q1128.75-28.5 1131.95-25.8 1135.15-23.1 1135.15-17.45L1135.15-17.45 1135.15-8.2ZM1124.15-11.4L1124.15-11.7Q1121.9-11.7 1120.67-11.1 1119.45-10.5 1119.45-9.1L1119.45-9.1Q1119.45-8.25 1119.97-7.73 1120.5-7.2 1121.45-7.2L1121.45-7.2Q1122.75-7.2 1123.45-8.3 1124.15-9.4 1124.15-11.4L1124.15-11.4ZM1154.84 0.05L1138.94 0.05 1138.94-8.2 1141.14-8.2 1141.14-30.7 1138.94-30.7 1138.94-38.9 1152.64-38.9 1152.64-8.2 1154.84-8.2 1154.84 0.05ZM1194.59 0L1171.54 0 1171.54-8.2 1174.04-8.2 1174.04-30.7 1171.54-30.7 1171.54-38.9 1201.44-38.9 1201.44-25.95 1192.59-25.95 1192.59-30.7 1188.04-30.7 1188.04-22.4 1195.59-22.4 1195.59-16.7 1188.04-16.7 1188.04-8.2 1194.59-8.2 1194.59 0ZM1233.74-8.2L1235.94-8.2 1235.94 0 1222.24 0 1222.24-3.9Q1218.64 0.7 1213.24 0.7L1213.24 0.7Q1209.09 0.7 1207.01-1.9 1204.94-4.5 1204.94-9.05L1204.94-9.05 1204.94-19.6 1202.74-19.6 1202.74-27.8 1216.44-27.8 1216.44-11.4Q1216.44-9.75 1217.16-8.97 1217.89-8.2 1219.34-8.2L1219.34-8.2Q1220.79-8.2 1221.51-8.97 1222.24-9.75 1222.24-11.4L1222.24-11.4 1222.24-19.6 1219.54-19.6 1219.54-27.8 1233.74-27.8 1233.74-8.2ZM1249.68 0.7Q1244.38 0.7 1241.71-1.88 1239.03-4.45 1239.03-10.55L1239.03-10.55 1239.03-19.6 1236.83-19.6 1236.83-27.8Q1238.73-27.8 1239.68-28.78 1240.63-29.75 1240.63-31.45L1240.63-31.45 1240.63-33.7 1251.23-33.7 1251.23-27.8 1257.98-27.8 1257.98-19.6 1251.23-19.6 1251.23-11.4Q1251.23-9.75 1251.96-8.97 1252.68-8.2 1254.13-8.2L1254.13-8.2Q1256.03-8.2 1258.28-8.65L1258.28-8.65 1258.28-0.8Q1256.88-0.25 1254.51 0.23 1252.13 0.7 1249.68 0.7L1249.68 0.7ZM1290.58-8.2L1292.78-8.2 1292.78 0 1279.08 0 1279.08-3.9Q1275.48 0.7 1270.08 0.7L1270.08 0.7Q1265.93 0.7 1263.86-1.9 1261.78-4.5 1261.78-9.05L1261.78-9.05 1261.78-19.6 1259.58-19.6 1259.58-27.8 1273.28-27.8 1273.28-11.4Q1273.28-9.75 1274.01-8.97 1274.73-8.2 1276.18-8.2L1276.18-8.2Q1277.63-8.2 1278.36-8.97 1279.08-9.75 1279.08-11.4L1279.08-11.4 1279.08-19.6 1276.38-19.6 1276.38-27.8 1290.58-27.8 1290.58-8.2ZM1315.53-28.5Q1316.53-28.5 1317.43-28.3 1318.33-28.1 1318.93-27.8L1318.93-27.8 1318.93-18.25Q1316.88-19.1 1314.53-19.1L1314.53-19.1Q1311.38-19.1 1309.68-17.45 1307.98-15.8 1307.98-12.55L1307.98-12.55 1307.98-8.2 1312.48-8.2 1312.48 0 1294.28 0 1294.28-8.2 1296.48-8.2 1296.48-19.6 1294.28-19.6 1294.28-27.8 1307.98-27.8 1307.98-24.15Q1309.38-26.25 1311.18-27.38 1312.98-28.5 1315.53-28.5L1315.53-28.5ZM1335.43 0.7Q1328.33 0.7 1324.33-3.03 1320.33-6.75 1320.33-13.9L1320.33-13.9Q1320.33-21.05 1324.33-24.78 1328.33-28.5 1335.43-28.5L1335.43-28.5Q1342.48-28.5 1345.6-24.83 1348.73-21.15 1348.73-15.7L1348.73-15.7 1348.73-12.1 1332.53-12.1 1332.53-11.8Q1332.53-9.95 1333.63-9.08 1334.73-8.2 1337.28-8.2L1337.28-8.2Q1340.33-8.2 1343.08-8.65 1345.83-9.1 1347.88-9.8L1347.88-9.8 1347.88-1.8Q1346.13-0.85 1342.75-0.08 1339.38 0.7 1335.43 0.7L1335.43 0.7ZM1332.53-17.6L1338.33-17.6 1338.33-18.2Q1338.33-19.9 1337.6-20.65 1336.88-21.4 1335.43-21.4L1335.43-21.4Q1333.98-21.4 1333.25-20.63 1332.53-19.85 1332.53-18.2L1332.53-18.2 1332.53-17.6Z" opacity="1" transform="matrix(1,0,0,1,0,0)" fill="#004973" class="slogan-text-1" data-fill-palette-color="secondary" id="text-1"/></svg></g></svg></g></svg></g></svg></g><g transform="matrix(1,0,0,1,437.12759759771643,0)"><svg viewBox="0 0 244.43135999999998 244.43135999999998" height="244.43135999999998" width="244.43135999999998"><g><svg viewBox="0 0 244.43135999999998 244.43135999999998" height="244.43135999999998" width="244.43135999999998"><g transform="matrix(1,0,0,1,64.60265593644992,65.92469392824636)"><svg viewBox="0 0 115.22604812710014 112.58197214350727" height="112.58197214350727" width="115.22604812710014"><g><svg xmlns="http://www.w3.org/2000/svg" xmlns:xlink="http://www.w3.org/1999/xlink" version="1.1" x="0" y="0" viewBox="8.6 9.6 82.80000000000001 80.90000000000002" style="enable-background:new 0 0 100 100;" xml:space="preserve" height="112.58197214350727" width="115.22604812710014" class="icon-cg-0" data-fill-palette-color="accent" id="cg-0"><g fill="#6ae7fd" data-fill-palette-color="accent"><path d="M50 60.4c5.7 0 10.4-4.7 10.4-10.4 0-2.3-0.8-4.6-2.2-6.4l15.9-15.9c1.9 1.7 4.4 2.7 6.9 2.7 5.7 0 10.4-4.7 10.4-10.4S86.7 9.6 81 9.6 70.6 14.3 70.6 20c0 1.3 0.2 2.4 0.7 3.7L54.4 40.6c-1.4-0.7-2.9-1-4.4-1-5.7 0-10.4 4.7-10.4 10.4S44.3 60.4 50 60.4z" fill="#6ae7fd" data-fill-palette-color="accent"/><path d="M50 30.4c5.7 0 10.4-4.7 10.4-10.4S55.7 9.6 50 9.6 39.6 14.3 39.6 20 44.3 30.4 50 30.4z" fill="#6ae7fd" data-fill-palette-color="accent"/><path d="M81 39.6c-5.7 0-10.4 4.7-10.4 10.4S75.3 60.4 81 60.4 91.4 55.7 91.4 50 86.7 39.6 81 39.6z" fill="#6ae7fd" data-fill-palette-color="accent"/><path d="M19 69.6c-5.7 0-10.4 4.7-10.4 10.4S13.3 90.4 19 90.4 29.4 85.7 29.4 80 24.7 69.6 19 69.6z" fill="#6ae7fd" data-fill-palette-color="accent"/><path d="M81 69.6c-4.8 0-9 3.3-10.1 8H60.1c-1.1-4.7-5.3-8-10.1-8-3 0-5.8 1.3-7.7 3.5L26.3 57.3c1.9-2 3-4.6 3-7.3 0-4.8-3.3-9-8-10.1v-9.8c4.7-1.1 8-5.3 8-10.1 0-5.7-4.7-10.4-10.4-10.4S8.6 14.3 8.6 20c0 4.8 3.3 9 8 10.1v9.8c-4.7 1.1-8 5.3-8 10.1 0 5.7 4.7 10.4 10.4 10.4 1.1 0 2.2-0.2 3.2-0.5l17.7 17.7c-0.2 0.9-0.3 1.6-0.3 2.5 0 5.7 4.7 10.4 10.4 10.4 4.8 0 9-3.3 10.1-8h10.8c1.1 4.7 5.3 8 10.1 8 5.7 0 10.4-4.7 10.4-10.4S86.7 69.6 81 69.6z" fill="#6ae7fd" data-fill-palette-color="accent"/></g></svg></g></svg></g><g id="text-0"><path d="M9.64 87.212l21.952 8.005c0.763-0.595 1.443-1.337 2.04-2.224 0.599-0.894 1.075-1.826 1.429-2.796v0c0.646-1.771 0.851-3.559 0.615-5.364-0.241-1.808-0.949-3.441-2.123-4.899-1.174-1.459-2.788-2.562-4.842-3.311v0c-1.68-0.613-3.271-0.882-4.771-0.809-1.505 0.065-2.797 0.457-3.878 1.176-1.081 0.718-1.856 1.722-2.326 3.01v0c-0.391 1.072-0.485 2.181-0.282 3.326 0.205 1.139 0.64 2.325 1.303 3.556v0l-0.079 0.217-2.012-1.051-8.383-3.057-0.639 0.32-1.608 5.728 1.431 0.819zM20.234 87.349c-0.843-1.693-0.964-3.364-0.361-5.014v0c0.393-1.078 1.078-1.797 2.056-2.157 0.971-0.362 2.051-0.47 3.239-0.323 1.188 0.147 2.361 0.431 3.517 0.853v0c1.439 0.525 2.571 1.156 3.394 1.892 0.827 0.745 1.355 1.532 1.586 2.36 0.228 0.834 0.198 1.645-0.09 2.434v0c-0.318 0.873-0.747 1.655-1.285 2.346-0.542 0.682-1.089 1.152-1.639 1.408v0z" fill="#6ae7fd" data-fill-palette-color="accent"/><path d="M29.354 64.384l8.116 5.643c1.8 1.252 3.346 1.807 4.638 1.668 1.287-0.144 2.355-0.826 3.204-2.047v0c1.468-2.111 1.732-4.417 0.795-6.92v0l0.159-0.229 0.158 0.11c0.763 0.531 1.531 0.74 2.303 0.629 0.776-0.116 1.458-0.598 2.048-1.446v0c0.359-0.516 0.637-0.966 0.834-1.352 0.198-0.386 0.424-0.896 0.678-1.531v0l-1.345-1.181-0.747 0.686c-0.442 0.411-0.805 0.697-1.089 0.859-0.288 0.167-0.628 0.223-1.02 0.17-0.392-0.054-0.87-0.277-1.432-0.669v0l-11.337-7.883-0.685 0.075-3.127 5.508 1.505 1.305 2.683-2.292 9.356 6.505c0.135 0.726 0.144 1.427 0.025 2.103-0.118 0.675-0.433 1.381-0.945 2.118v0c-1.259 1.811-3.081 1.887-5.465 0.229v0l-9.545-6.637-0.734 0.145-2.906 4.972 1.214 1.218z" fill="#6ae7fd" data-fill-palette-color="accent"/><path d="M43.905 34.859c0.338-0.314 0.574-0.696 0.708-1.145 0.139-0.453 0.16-0.906 0.062-1.358-0.097-0.453-0.307-0.853-0.63-1.2v0c-0.467-0.502-1.052-0.75-1.756-0.744-0.694 0.007-1.304 0.255-1.83 0.744v0c-0.502 0.467-0.781 1.042-0.837 1.725-0.052 0.688 0.149 1.275 0.603 1.764v0c0.323 0.347 0.709 0.593 1.157 0.735 0.439 0.143 0.888 0.168 1.344 0.076 0.452-0.088 0.845-0.287 1.179-0.597zM55.808 55.135l7.533-7.008-0.99-1.417-3.044 1.768-10.866-11.679-0.761-0.028-4.08 4.466 0.909 1.387 3.172-1.349 8.986 9.659-1.829 2.792z" fill="#6ae7fd" data-fill-palette-color="accent"/><path d="M67.304 45.099l8.572-5.638-0.732-1.567-3.272 1.22-13.659-20.768-0.736-0.138-4.906 3.791 0.689 1.504 3.462-0.896 12.154 18.478-2.301 2.468z" fill="#6ae7fd" data-fill-palette-color="accent"/><path d="M76.555 20.844l4.206 9.935c0.874 2.052 1.863 3.336 2.966 3.851 1.1 0.509 2.312 0.477 3.636-0.097v0c1.1-0.476 2.001-1.17 2.704-2.081 0.696-0.909 1.157-1.95 1.382-3.124v0l-0.873-0.879c0.005 0.012-0.105 0.185-0.33 0.52-0.222 0.327-0.509 0.664-0.861 1.012-0.346 0.346-0.737 0.613-1.173 0.801v0c-0.694 0.3-1.301 0.423-1.82 0.369-0.525-0.052-1.007-0.318-1.446-0.8-0.439-0.481-0.872-1.215-1.3-2.203v0l-3.713-8.724 5.436-2.353-0.572-1.806-5.569 2.41-2.028-4.686-1.05 0.455c-0.286 1.276-0.654 2.581-1.104 3.914-0.45 1.333-0.936 2.501-1.459 3.503v0l0.462 1.067z" fill="#6ae7fd" data-fill-palette-color="accent"/><path d="M108.674 3.403l1.558 23.315c0.853 0.457 1.806 0.779 2.86 0.965 1.06 0.186 2.104 0.245 3.134 0.176v0c1.881-0.126 3.599-0.661 5.155-1.607 1.555-0.952 2.763-2.26 3.621-3.923 0.859-1.664 1.216-3.586 1.07-5.767v0c-0.119-1.785-0.516-3.348-1.19-4.691-0.668-1.35-1.55-2.373-2.644-3.071-1.094-0.698-2.325-1.001-3.694-0.91v0c-1.139 0.076-2.19 0.439-3.156 1.088-0.959 0.649-1.867 1.525-2.725 2.63v0l-0.23 0.015 0.147-2.265-0.595-8.903-0.551-0.455-5.889 0.847-0.17 1.64zM112.834 13.148c1.207-1.456 2.687-2.242 4.439-2.359v0c1.145-0.077 2.08 0.259 2.804 1.008 0.724 0.742 1.26 1.686 1.606 2.832 0.346 1.146 0.561 2.333 0.643 3.561v0c0.102 1.529-0.017 2.818-0.358 3.869-0.347 1.058-0.852 1.859-1.516 2.405-0.67 0.546-1.424 0.847-2.263 0.903v0c-0.927 0.062-1.816-0.014-2.665-0.227-0.844-0.22-1.494-0.53-1.951-0.929v0z" fill="#6ae7fd" data-fill-palette-color="accent"/><path d="M133.163 35.556c1.096 0.209 2.07 0.182 2.922-0.079 0.853-0.262 1.709-0.819 2.571-1.673 0.861-0.854 1.83-2.118 2.906-3.793v0l10.228-15.758 2.299-0.453 0.439-1.531-7.207-1.374-0.594 1.521 2.589 1.414-6.698 10.382-2.131-12.182 2.834-0.283 0.486-1.522-8.851-1.687-0.544 1.57 2.463 1.302 2.963 17.118-0.621 0.948c-0.743 1.157-1.45 1.874-2.123 2.15-0.674 0.283-1.36 0.357-2.06 0.225v0c-0.548-0.104-1.057-0.293-1.527-0.566-0.464-0.271-0.945-0.657-1.444-1.156v0c-0.528 0.304-0.913 0.645-1.154 1.023-0.247 0.371-0.416 0.795-0.507 1.274v0c-0.078 0.409-0.018 0.832 0.179 1.268 0.203 0.443 0.529 0.835 0.98 1.175 0.451 0.34 0.985 0.569 1.602 0.687z" fill="#6ae7fd" data-fill-palette-color="accent"/><path d="M180.032 16.772l-12.288 19.875c0.428 0.868 1.017 1.684 1.765 2.447 0.754 0.768 1.57 1.423 2.448 1.966v0c1.603 0.991 3.312 1.554 5.128 1.689 1.819 0.13 3.562-0.232 5.228-1.086 1.666-0.854 3.074-2.211 4.223-4.07v0c0.941-1.521 1.527-3.024 1.759-4.509 0.241-1.487 0.119-2.832-0.365-4.036-0.484-1.204-1.31-2.166-2.477-2.887v0c-0.971-0.6-2.037-0.917-3.2-0.95-1.157-0.03-2.406 0.155-3.746 0.555v0l-0.197-0.121 1.437-1.757 4.693-7.59-0.184-0.691-5.284-2.735-1.092 1.235zM177.75 27.118c1.828-0.483 3.489-0.262 4.983 0.662v0c0.976 0.603 1.541 1.42 1.696 2.45 0.158 1.025 0.045 2.104-0.34 3.238-0.385 1.134-0.9 2.224-1.548 3.272v0c-0.806 1.303-1.653 2.283-2.541 2.939-0.897 0.659-1.774 1.017-2.631 1.075-0.863 0.054-1.651-0.139-2.366-0.58v0c-0.791-0.489-1.47-1.067-2.037-1.734-0.558-0.669-0.907-1.3-1.047-1.891v0z" fill="#6ae7fd" data-fill-palette-color="accent"/><path d="M181.255 57.167c0.77 0.807 1.577 1.353 2.423 1.636 0.846 0.283 1.867 0.328 3.064 0.134 1.197-0.194 2.72-0.658 4.57-1.394v0l17.487-6.867 2.133 0.969 1.248-0.991-5.063-5.31-1.368 0.892 1.283 2.656-11.487 4.549 5.353-11.149 2.469 1.419 1.281-0.956-6.217-6.521-1.356 0.961 1.246 2.491-7.548 15.647-1.057 0.411c-1.277 0.509-2.27 0.68-2.978 0.513-0.713-0.162-1.314-0.501-1.805-1.015v0c-0.385-0.404-0.689-0.853-0.914-1.348-0.22-0.49-0.387-1.084-0.501-1.78v0c-0.606-0.06-1.118-0.006-1.535 0.16-0.416 0.158-0.801 0.405-1.153 0.741v0c-0.302 0.288-0.499 0.666-0.592 1.136-0.093 0.478-0.055 0.987 0.114 1.526 0.169 0.539 0.47 1.036 0.903 1.49z" fill="#6ae7fd" data-fill-palette-color="accent"/><path d="M216.518 60.891l-9.256 5.544c-1.911 1.151-3.045 2.308-3.402 3.471-0.351 1.16-0.151 2.356 0.6 3.588v0c0.624 1.023 1.436 1.82 2.436 2.388 0.997 0.563 2.092 0.875 3.286 0.936v0l0.749-0.987c-0.011 0.007-0.198-0.078-0.56-0.254-0.354-0.174-0.728-0.412-1.122-0.713-0.39-0.295-0.709-0.645-0.956-1.05v0c-0.394-0.646-0.6-1.23-0.618-1.752-0.021-0.528 0.176-1.042 0.591-1.543 0.415-0.501 1.083-1.032 2.002-1.593v0l8.125-4.887 3.084 5.057 1.709-0.817-3.159-5.181 4.359-2.658-0.596-0.977c-1.304-0.106-2.647-0.289-4.029-0.55-1.383-0.26-2.607-0.58-3.672-0.96v0l-0.993 0.606z" fill="#6ae7fd" data-fill-palette-color="accent"/><path d="M212.269 90.953c0.478 1.32 1.163 2.466 2.054 3.439 0.893 0.979 1.911 1.718 3.054 2.217v0l0.913-0.811c-0.588-0.53-1.053-1.016-1.398-1.457-0.336-0.437-0.591-0.839-0.764-1.207-0.166-0.363-0.365-0.867-0.599-1.511v0c-0.43-1.187-0.457-2.316-0.081-3.387 0.382-1.073 1.026-2.015 1.931-2.827 0.904-0.818 1.912-1.46 3.025-1.924v0l3.656 9.721c0.378-0.048 0.851-0.135 1.42-0.259 0.572-0.132 1.012-0.254 1.32-0.366v0c1.374-0.498 2.453-1.162 3.236-1.991 0.792-0.826 1.283-1.737 1.475-2.733 0.191-0.997 0.107-1.992-0.254-2.986v0c-0.487-1.344-1.345-2.516-2.573-3.517-1.228-1-2.71-1.646-4.446-1.938-1.729-0.294-3.555-0.093-5.478 0.604v0c-1.953 0.708-3.499 1.67-4.64 2.888-1.138 1.224-1.849 2.545-2.133 3.964-0.284 1.419-0.19 2.779 0.282 4.081zM228.929 84.599c0.673 1.856-0.242 3.238-2.743 4.144v0c-0.205 0.074-0.456 0.152-0.754 0.233-0.29 0.085-0.518 0.133-0.684 0.145v0l-2.754-6.161c1.26-0.381 2.375-0.54 3.346-0.476 0.979 0.068 1.771 0.296 2.375 0.684 0.604 0.388 1.009 0.865 1.214 1.431z" fill="#6ae7fd" data-fill-palette-color="accent"/><path d="M38.474 146.755l-22.997 8.51c-0.213 0.995-0.255 2.053-0.127 3.174 0.128 1.122 0.379 2.187 0.752 3.198v0c0.69 1.864 1.743 3.436 3.16 4.716 1.419 1.286 3.095 2.112 5.028 2.476 1.927 0.367 3.966 0.152 6.118-0.644v0c1.762-0.652 3.219-1.516 4.373-2.592 1.153-1.076 1.922-2.27 2.305-3.58 0.377-1.308 0.315-2.639-0.185-3.992v0c-0.416-1.124-1.095-2.073-2.037-2.845-0.942-0.772-2.096-1.425-3.463-1.959v0l-0.087-0.234 2.329-0.523 8.784-3.251 0.3-0.685-2.608-5.689-1.705 0.323zM29.91 153.841c1.821 0.782 3.051 2.039 3.691 3.771v0c0.418 1.13 0.359 2.171-0.177 3.121-0.537 0.951-1.328 1.769-2.372 2.457-1.048 0.695-2.18 1.268-3.394 1.717v0c-1.503 0.556-2.838 0.818-4.006 0.785-1.161-0.035-2.116-0.307-2.865-0.816-0.749-0.509-1.277-1.178-1.584-2.008v0c-0.338-0.914-0.526-1.829-0.564-2.744-0.032-0.918 0.085-1.665 0.349-2.242v0z" fill="#6ae7fd" data-fill-palette-color="accent"/><path d="M39.896 173.064l-8.487 5.985c-1.876 1.323-2.976 2.644-3.3 3.963-0.33 1.323-0.044 2.624 0.857 3.902v0c1.555 2.206 3.739 3.294 6.55 3.265v0l0.166 0.236-0.165 0.116c-0.802 0.565-1.283 1.25-1.446 2.055-0.167 0.808 0.059 1.653 0.68 2.533v0c0.381 0.54 0.726 0.974 1.038 1.304 0.309 0.339 0.736 0.748 1.278 1.228v0l1.641-0.91-0.418-0.976c-0.245-0.581-0.395-1.043-0.45-1.389-0.061-0.342 0.008-0.696 0.204-1.062 0.188-0.368 0.575-0.759 1.162-1.172v0l11.851-8.357 0.176-0.701-4.316-5.052-1.822 1.003 1.297 3.474-9.776 6.894c-0.765-0.128-1.458-0.372-2.082-0.732-0.619-0.355-1.202-0.921-1.749-1.697v0c-1.334-1.891-0.756-3.714 1.732-5.469v0l9.973-7.032 0.126-0.772-3.873-4.658-1.629 0.76z" fill="#6ae7fd" data-fill-palette-color="accent"/><path d="M63.205 189.697c0.354 0.325 0.772 0.543 1.252 0.654 0.481 0.102 0.954 0.084 1.421-0.053 0.47-0.142 0.872-0.395 1.206-0.759v0c0.49-0.533 0.701-1.166 0.634-1.899-0.063-0.728-0.37-1.345-0.923-1.853v0c-0.529-0.486-1.156-0.731-1.882-0.736-0.721-0.001-1.321 0.258-1.798 0.777v0c-0.334 0.364-0.556 0.786-0.667 1.267-0.116 0.477-0.107 0.951 0.026 1.421 0.133 0.462 0.377 0.855 0.731 1.181zM42.958 203.82l7.96 7.312 1.394-1.162-2.096-3.035 11.332-12.336-0.041-0.795-5.011-3.898-1.363 1.059 1.66 3.209-9.367 10.198-3.066-1.68z" fill="#6ae7fd" data-fill-palette-color="accent"/><path d="M56.795 215.611l9.021 5.884 1.208-1.359-2.558-2.644 14.258-21.859-0.173-0.755-5.701-3.122-1.169 1.281 2.318 2.959-12.682 19.442-3.34-1.18z" fill="#6ae7fd" data-fill-palette-color="accent"/><path d="M82.174 210.549l-4.565 10.368c-0.944 2.141-1.214 3.819-0.808 5.033 0.399 1.212 1.293 2.118 2.682 2.717v0c1.16 0.5 2.338 0.69 3.534 0.571 1.199-0.125 2.326-0.522 3.383-1.191v0l0.051-1.308c-0.008 0.018-0.218 0.06-0.631 0.126-0.413 0.066-0.876 0.09-1.391 0.07-0.515-0.02-0.999-0.127-1.453-0.323v0c-0.736-0.317-1.268-0.693-1.597-1.128-0.335-0.438-0.48-0.999-0.436-1.685 0.048-0.678 0.295-1.534 0.742-2.571v0l4.002-9.112 5.713 2.463 0.969-1.739-5.854-2.524 2.12-4.919-1.094-0.472c-1.181 0.699-2.444 1.355-3.791 1.968-1.346 0.613-2.586 1.084-3.719 1.412v0l-0.48 1.113z" fill="#6ae7fd" data-fill-palette-color="accent"/><path d="M110.089 210.306l-1.717 24.461c0.819 0.604 1.766 1.078 2.841 1.423 1.075 0.345 2.149 0.556 3.223 0.631v0c1.982 0.139 3.849-0.173 5.599-0.937 1.757-0.764 3.199-1.951 4.328-3.562 1.128-1.605 1.772-3.552 1.932-5.841v0c0.131-1.874-0.056-3.558-0.561-5.052-0.506-1.494-1.277-2.686-2.313-3.574-1.037-0.882-2.275-1.374-3.714-1.476v0c-1.196-0.084-2.34 0.144-3.431 0.685-1.092 0.54-2.162 1.323-3.211 2.349v0l-0.25-0.018 0.482-2.337 0.656-9.343-0.501-0.556-6.258 0.033-0.408 1.687zM113.019 221.029c1.463-1.337 3.115-1.941 4.956-1.812v0c1.202 0.084 2.126 0.567 2.771 1.448 0.645 0.881 1.066 1.938 1.262 3.173 0.202 1.242 0.258 2.508 0.167 3.8v0c-0.112 1.599-0.424 2.923-0.934 3.974-0.51 1.044-1.151 1.802-1.924 2.274-0.772 0.473-1.6 0.678-2.482 0.617v0c-0.972-0.068-1.883-0.274-2.733-0.616-0.85-0.349-1.482-0.763-1.898-1.242v0z" fill="#6ae7fd" data-fill-palette-color="accent"/><path d="M139.408 244.351c1.153-0.218 2.095-0.618 2.827-1.199 0.732-0.582 1.353-1.456 1.863-2.623 0.51-1.166 0.97-2.773 1.378-4.821v0l3.931-19.327 2.068-1.33-0.158-1.664-7.568 1.431 0.001 1.713 3.077 0.387-2.548 12.714-6.761-11.072 2.647-1.371-0.111-1.673-9.288 1.756 0.076 1.747 2.899 0.323 9.482 15.578-0.238 1.171c-0.281 1.41-0.698 2.383-1.25 2.918-0.546 0.527-1.191 0.861-1.934 1.001v0c-0.573 0.108-1.139 0.121-1.696 0.037-0.557-0.084-1.178-0.276-1.861-0.578v0c-0.394 0.505-0.638 0.988-0.733 1.45-0.095 0.462-0.096 0.941-0.002 1.439v0c0.081 0.428 0.301 0.817 0.66 1.167 0.367 0.355 0.837 0.612 1.409 0.771 0.572 0.159 1.182 0.178 1.83 0.055z" fill="#6ae7fd" data-fill-palette-color="accent"/><path d="M163.188 201.912l12.787 20.922c1.017 0.017 2.064-0.145 3.14-0.487 1.076-0.342 2.073-0.794 2.992-1.356v0c1.696-1.036 3.035-2.373 4.017-4.01 0.988-1.641 1.475-3.445 1.46-5.411-0.012-1.961-0.616-3.921-1.812-5.88v0c-0.98-1.603-2.108-2.866-3.387-3.79-1.278-0.924-2.598-1.448-3.958-1.571-1.357-0.118-2.65 0.2-3.881 0.952v0c-1.023 0.625-1.822 1.474-2.399 2.548-0.576 1.073-0.994 2.332-1.253 3.775v0l-0.214 0.131-0.963-2.184-4.884-7.992-0.73-0.162-5.079 3.656 0.646 1.611zM171.793 208.948c0.416-1.937 1.412-3.387 2.988-4.351v0c1.028-0.628 2.061-0.771 3.097-0.427 1.036 0.343 1.992 0.961 2.868 1.853 0.885 0.894 1.665 1.894 2.34 2.999v0c0.836 1.367 1.35 2.627 1.543 3.779 0.19 1.146 0.107 2.136-0.248 2.969-0.355 0.833-0.91 1.48-1.665 1.941v0c-0.831 0.508-1.693 0.869-2.583 1.083-0.894 0.208-1.65 0.238-2.267 0.09v0z" fill="#6ae7fd" data-fill-palette-color="accent"/><path d="M206.82 212.637c0.812-0.846 1.348-1.719 1.606-2.617 0.258-0.898 0.257-1.971-0.004-3.217-0.261-1.246-0.819-2.821-1.675-4.727v0l-8.012-18.022 0.912-2.283-1.093-1.263-5.334 5.557 0.994 1.394 2.731-1.471 5.302 11.835-11.931-5.095 1.36-2.653-1.06-1.298-6.546 6.819 1.075 1.379 2.549-1.419 16.761 7.186 0.485 1.092c0.589 1.312 0.814 2.346 0.676 3.101-0.139 0.746-0.47 1.392-0.994 1.938v0c-0.404 0.421-0.857 0.759-1.36 1.014-0.503 0.255-1.12 0.458-1.851 0.609v0c-0.028 0.64 0.053 1.175 0.243 1.607 0.19 0.431 0.468 0.822 0.834 1.173v0c0.314 0.302 0.72 0.491 1.215 0.567 0.505 0.076 1.036 0.013 1.594-0.189 0.558-0.202 1.066-0.541 1.523-1.017z" fill="#6ae7fd" data-fill-palette-color="accent"/><path d="M204.133 176.563l9.604 6.008c1.983 1.242 3.605 1.75 4.865 1.525 1.257-0.22 2.282-0.975 3.074-2.264v0c0.662-1.076 1.019-2.214 1.073-3.416 0.048-1.204-0.182-2.377-0.692-3.518v0l-1.287-0.239c0.016 0.01 0.028 0.224 0.034 0.642 0.006 0.418-0.037 0.88-0.13 1.387-0.094 0.507-0.27 0.971-0.528 1.392v0c-0.42 0.683-0.869 1.155-1.347 1.418-0.481 0.269-1.058 0.331-1.73 0.189-0.664-0.145-1.476-0.513-2.437-1.104v0l-8.443-5.271 3.259-5.299-1.581-1.21-3.34 5.431-4.562-2.806-0.625 1.015c0.522 1.269 0.989 2.614 1.402 4.035 0.413 1.421 0.701 2.715 0.863 3.883v0l1.032 0.635z" fill="#6ae7fd" data-fill-palette-color="accent"/><path d="M231.568 160.915c0.506-1.378 0.731-2.76 0.674-4.147-0.057-1.387-0.375-2.668-0.954-3.844v0l-1.281 0.031c0.113 0.827 0.157 1.533 0.133 2.118-0.022 0.579-0.088 1.074-0.198 1.485-0.108 0.404-0.286 0.947-0.536 1.626v0c-0.456 1.24-1.198 2.162-2.226 2.768-1.028 0.605-2.182 0.929-3.461 0.971-1.279 0.042-2.521-0.128-3.727-0.509v0l3.633-10.272c-0.336-0.219-0.777-0.47-1.322-0.753-0.545-0.282-0.977-0.482-1.296-0.599v0c-1.438-0.529-2.754-0.729-3.949-0.601-1.191 0.136-2.202 0.536-3.033 1.201-0.828 0.672-1.433 1.529-1.816 2.57v0c-0.52 1.414-0.625 2.936-0.315 4.566 0.313 1.638 1.066 3.158 2.258 4.559 1.196 1.41 2.802 2.485 4.818 3.225v0c2.04 0.75 3.931 1.021 5.673 0.815 1.736-0.209 3.199-0.788 4.388-1.737 1.187-0.943 2.032-2.101 2.537-3.473zM213.895 154.757c0.714-1.944 2.383-2.433 5.006-1.469v0c0.211 0.077 0.462 0.183 0.754 0.319 0.3 0.131 0.518 0.245 0.653 0.342v0l-1.951 6.813c-1.269-0.542-2.271-1.17-3.006-1.884-0.743-0.71-1.224-1.427-1.443-2.149-0.228-0.719-0.232-1.376-0.013-1.972z" fill="#6ae7fd" data-fill-palette-color="accent"/><path d="M8.629 122.204c0-5.91 4.791-10.7 10.701-10.701 5.91 0 10.7 4.791 10.7 10.701 0 5.91-4.791 10.7-10.7 10.7-5.91 0-10.7-4.791-10.701-10.7z" fill="#6ae7fd" data-fill-palette-color="accent"/><path d="M216.995 122.204c0-5.91 4.791-10.7 10.7-10.701 5.91 0 10.7 4.791 10.701 10.701 0 5.91-4.791 10.7-10.701 10.7-5.91 0-10.7-4.791-10.7-10.7z" fill="#6ae7fd" data-fill-palette-color="accent"/></g><g id="text-1"/></svg></g></svg></g></svg>