<svg xmlns="http://www.w3.org/2000/svg" viewBox="0 0 681.5589575977165 244.43135999999998" height="141.84758402700496" width="195.52"><g transform="matrix(1,0,0,1,437.12759759771643,0)"><svg viewBox="0 0 244.43135999999998 244.43135999999998" height="244.43135999999998" width="244.43135999999998"><g><svg viewBox="0 0 244.43135999999998 244.43135999999998" height="244.43135999999998" width="244.43135999999998"><g transform="matrix(1,0,0,1,64.60265593644992,65.92469392824636)"><svg viewBox="0 0 115.22604812710014 112.58197214350727" height="112.58197214350727" width="115.22604812710014"><g><svg xmlns="http://www.w3.org/2000/svg" xmlns:xlink="http://www.w3.org/1999/xlink" version="1.1" x="0" y="0" viewBox="8.6 9.6 82.80000000000001 80.90000000000002" style="enable-background:new 0 0 100 100;" xml:space="preserve" height="112.58197214350727" width="115.22604812710014" class="icon-cg-0" data-fill-palette-color="accent" id="cg-0"><g fill="#6ae7fd" data-fill-palette-color="accent"><path d="M50 60.4c5.7 0 10.4-4.7 10.4-10.4 0-2.3-0.8-4.6-2.2-6.4l15.9-15.9c1.9 1.7 4.4 2.7 6.9 2.7 5.7 0 10.4-4.7 10.4-10.4S86.7 9.6 81 9.6 70.6 14.3 70.6 20c0 1.3 0.2 2.4 0.7 3.7L54.4 40.6c-1.4-0.7-2.9-1-4.4-1-5.7 0-10.4 4.7-10.4 10.4S44.3 60.4 50 60.4z" fill="#6ae7fd" data-fill-palette-color="accent"/><path d="M50 30.4c5.7 0 10.4-4.7 10.4-10.4S55.7 9.6 50 9.6 39.6 14.3 39.6 20 44.3 30.4 50 30.4z" fill="#6ae7fd" data-fill-palette-color="accent"/><path d="M81 39.6c-5.7 0-10.4 4.7-10.4 10.4S75.3 60.4 81 60.4 91.4 55.7 91.4 50 86.7 39.6 81 39.6z" fill="#6ae7fd" data-fill-palette-color="accent"/><path d="M19 69.6c-5.7 0-10.4 4.7-10.4 10.4S13.3 90.4 19 90.4 29.4 85.7 29.4 80 24.7 69.6 19 69.6z" fill="#6ae7fd" data-fill-palette-color="accent"/><path d="M81 69.6c-4.8 0-9 3.3-10.1 8H60.1c-1.1-4.7-5.3-8-10.1-8-3 0-5.8 1.3-7.7 3.5L26.3 57.3c1.9-2 3-4.6 3-7.3 0-4.8-3.3-9-8-10.1v-9.8c4.7-1.1 8-5.3 8-10.1 0-5.7-4.7-10.4-10.4-10.4S8.6 14.3 8.6 20c0 4.8 3.3 9 8 10.1v9.8c-4.7 1.1-8 5.3-8 10.1 0 5.7 4.7 10.4 10.4 10.4 1.1 0 2.2-0.2 3.2-0.5l17.7 17.7c-0.2 0.9-0.3 1.6-0.3 2.5 0 5.7 4.7 10.4 10.4 10.4 4.8 0 9-3.3 10.1-8h10.8c1.1 4.7 5.3 8 10.1 8 5.7 0 10.4-4.7 10.4-10.4S86.7 69.6 81 69.6z" fill="#6ae7fd" data-fill-palette-color="accent"/></g></svg></g></svg></g><g id="text-0"><path d="M9.64 87.212l21.952 8.005c0.763-0.595 1.443-1.337 2.04-2.224 0.599-0.894 1.075-1.826 1.429-2.796v0c0.646-1.771 0.851-3.559 0.615-5.364-0.241-1.808-0.949-3.441-2.123-4.899-1.174-1.459-2.788-2.562-4.842-3.311v0c-1.68-0.613-3.271-0.882-4.771-0.809-1.505 0.065-2.797 0.457-3.878 1.176-1.081 0.718-1.856 1.722-2.326 3.01v0c-0.391 1.072-0.485 2.181-0.282 3.326 0.205 1.139 0.64 2.325 1.303 3.556v0l-0.079 0.217-2.012-1.051-8.383-3.057-0.639 0.32-1.608 5.728 1.431 0.819zM20.234 87.349c-0.843-1.693-0.964-3.364-0.361-5.014v0c0.393-1.078 1.078-1.797 2.056-2.157 0.971-0.362 2.051-0.47 3.239-0.323 1.188 0.147 2.361 0.431 3.517 0.853v0c1.439 0.525 2.571 1.156 3.394 1.892 0.827 0.745 1.355 1.532 1.586 2.36 0.228 0.834 0.198 1.645-0.09 2.434v0c-0.318 0.873-0.747 1.655-1.285 2.346-0.542 0.682-1.089 1.152-1.639 1.408v0z" fill="#6ae7fd" data-fill-palette-color="accent"/><path d="M29.354 64.384l8.116 5.643c1.8 1.252 3.346 1.807 4.638 1.668 1.287-0.144 2.355-0.826 3.204-2.047v0c1.468-2.111 1.732-4.417 0.795-6.92v0l0.159-0.229 0.158 0.11c0.763 0.531 1.531 0.74 2.303 0.629 0.776-0.116 1.458-0.598 2.048-1.446v0c0.359-0.516 0.637-0.966 0.834-1.352 0.198-0.386 0.424-0.896 0.678-1.531v0l-1.345-1.181-0.747 0.686c-0.442 0.411-0.805 0.697-1.089 0.859-0.288 0.167-0.628 0.223-1.02 0.17-0.392-0.054-0.87-0.277-1.432-0.669v0l-11.337-7.883-0.685 0.075-3.127 5.508 1.505 1.305 2.683-2.292 9.356 6.505c0.135 0.726 0.144 1.427 0.025 2.103-0.118 0.675-0.433 1.381-0.945 2.118v0c-1.259 1.811-3.081 1.887-5.465 0.229v0l-9.545-6.637-0.734 0.145-2.906 4.972 1.214 1.218z" fill="#6ae7fd" data-fill-palette-color="accent"/><path d="M43.905 34.859c0.338-0.314 0.574-0.696 0.708-1.145 0.139-0.453 0.16-0.906 0.062-1.358-0.097-0.453-0.307-0.853-0.63-1.2v0c-0.467-0.502-1.052-0.75-1.756-0.744-0.694 0.007-1.304 0.255-1.83 0.744v0c-0.502 0.467-0.781 1.042-0.837 1.725-0.052 0.688 0.149 1.275 0.603 1.764v0c0.323 0.347 0.709 0.593 1.157 0.735 0.439 0.143 0.888 0.168 1.344 0.076 0.452-0.088 0.845-0.287 1.179-0.597zM55.808 55.135l7.533-7.008-0.99-1.417-3.044 1.768-10.866-11.679-0.761-0.028-4.08 4.466 0.909 1.387 3.172-1.349 8.986 9.659-1.829 2.792z" fill="#6ae7fd" data-fill-palette-color="accent"/><path d="M67.304 45.099l8.572-5.638-0.732-1.567-3.272 1.22-13.659-20.768-0.736-0.138-4.906 3.791 0.689 1.504 3.462-0.896 12.154 18.478-2.301 2.468z" fill="#6ae7fd" data-fill-palette-color="accent"/><path d="M76.555 20.844l4.206 9.935c0.874 2.052 1.863 3.336 2.966 3.851 1.1 0.509 2.312 0.477 3.636-0.097v0c1.1-0.476 2.001-1.17 2.704-2.081 0.696-0.909 1.157-1.95 1.382-3.124v0l-0.873-0.879c0.005 0.012-0.105 0.185-0.33 0.52-0.222 0.327-0.509 0.664-0.861 1.012-0.346 0.346-0.737 0.613-1.173 0.801v0c-0.694 0.3-1.301 0.423-1.82 0.369-0.525-0.052-1.007-0.318-1.446-0.8-0.439-0.481-0.872-1.215-1.3-2.203v0l-3.713-8.724 5.436-2.353-0.572-1.806-5.569 2.41-2.028-4.686-1.05 0.455c-0.286 1.276-0.654 2.581-1.104 3.914-0.45 1.333-0.936 2.501-1.459 3.503v0l0.462 1.067z" fill="#6ae7fd" data-fill-palette-color="accent"/><path d="M108.674 3.403l1.558 23.315c0.853 0.457 1.806 0.779 2.86 0.965 1.06 0.186 2.104 0.245 3.134 0.176v0c1.881-0.126 3.599-0.661 5.155-1.607 1.555-0.952 2.763-2.26 3.621-3.923 0.859-1.664 1.216-3.586 1.07-5.767v0c-0.119-1.785-0.516-3.348-1.19-4.691-0.668-1.35-1.55-2.373-2.644-3.071-1.094-0.698-2.325-1.001-3.694-0.91v0c-1.139 0.076-2.19 0.439-3.156 1.088-0.959 0.649-1.867 1.525-2.725 2.63v0l-0.23 0.015 0.147-2.265-0.595-8.903-0.551-0.455-5.889 0.847-0.17 1.64zM112.834 13.148c1.207-1.456 2.687-2.242 4.439-2.359v0c1.145-0.077 2.08 0.259 2.804 1.008 0.724 0.742 1.26 1.686 1.606 2.832 0.346 1.146 0.561 2.333 0.643 3.561v0c0.102 1.529-0.017 2.818-0.358 3.869-0.347 1.058-0.852 1.859-1.516 2.405-0.67 0.546-1.424 0.847-2.263 0.903v0c-0.927 0.062-1.816-0.014-2.665-0.227-0.844-0.22-1.494-0.53-1.951-0.929v0z" fill="#6ae7fd" data-fill-palette-color="accent"/><path d="M133.163 35.556c1.096 0.209 2.07 0.182 2.922-0.079 0.853-0.262 1.709-0.819 2.571-1.673 0.861-0.854 1.83-2.118 2.906-3.793v0l10.228-15.758 2.299-0.453 0.439-1.531-7.207-1.374-0.594 1.521 2.589 1.414-6.698 10.382-2.131-12.182 2.834-0.283 0.486-1.522-8.851-1.687-0.544 1.57 2.463 1.302 2.963 17.118-0.621 0.948c-0.743 1.157-1.45 1.874-2.123 2.15-0.674 0.283-1.36 0.357-2.06 0.225v0c-0.548-0.104-1.057-0.293-1.527-0.566-0.464-0.271-0.945-0.657-1.444-1.156v0c-0.528 0.304-0.913 0.645-1.154 1.023-0.247 0.371-0.416 0.795-0.507 1.274v0c-0.078 0.409-0.018 0.832 0.179 1.268 0.203 0.443 0.529 0.835 0.98 1.175 0.451 0.34 0.985 0.569 1.602 0.687z" fill="#6ae7fd" data-fill-palette-color="accent"/><path d="M180.032 16.772l-12.288 19.875c0.428 0.868 1.017 1.684 1.765 2.447 0.754 0.768 1.57 1.423 2.448 1.966v0c1.603 0.991 3.312 1.554 5.128 1.689 1.819 0.13 3.562-0.232 5.228-1.086 1.666-0.854 3.074-2.211 4.223-4.07v0c0.941-1.521 1.527-3.024 1.759-4.509 0.241-1.487 0.119-2.832-0.365-4.036-0.484-1.204-1.31-2.166-2.477-2.887v0c-0.971-0.6-2.037-0.917-3.2-0.95-1.157-0.03-2.406 0.155-3.746 0.555v0l-0.197-0.121 1.437-1.757 4.693-7.59-0.184-0.691-5.284-2.735-1.092 1.235zM177.75 27.118c1.828-0.483 3.489-0.262 4.983 0.662v0c0.976 0.603 1.541 1.42 1.696 2.45 0.158 1.025 0.045 2.104-0.34 3.238-0.385 1.134-0.9 2.224-1.548 3.272v0c-0.806 1.303-1.653 2.283-2.541 2.939-0.897 0.659-1.774 1.017-2.631 1.075-0.863 0.054-1.651-0.139-2.366-0.58v0c-0.791-0.489-1.47-1.067-2.037-1.734-0.558-0.669-0.907-1.3-1.047-1.891v0z" fill="#6ae7fd" data-fill-palette-color="accent"/><path d="M181.255 57.167c0.77 0.807 1.577 1.353 2.423 1.636 0.846 0.283 1.867 0.328 3.064 0.134 1.197-0.194 2.72-0.658 4.57-1.394v0l17.487-6.867 2.133 0.969 1.248-0.991-5.063-5.31-1.368 0.892 1.283 2.656-11.487 4.549 5.353-11.149 2.469 1.419 1.281-0.956-6.217-6.521-1.356 0.961 1.246 2.491-7.548 15.647-1.057 0.411c-1.277 0.509-2.27 0.68-2.978 0.513-0.713-0.162-1.314-0.501-1.805-1.015v0c-0.385-0.404-0.689-0.853-0.914-1.348-0.22-0.49-0.387-1.084-0.501-1.78v0c-0.606-0.06-1.118-0.006-1.535 0.16-0.416 0.158-0.801 0.405-1.153 0.741v0c-0.302 0.288-0.499 0.666-0.592 1.136-0.093 0.478-0.055 0.987 0.114 1.526 0.169 0.539 0.47 1.036 0.903 1.49z" fill="#6ae7fd" data-fill-palette-color="accent"/><path d="M216.518 60.891l-9.256 5.544c-1.911 1.151-3.045 2.308-3.402 3.471-0.351 1.16-0.151 2.356 0.6 3.588v0c0.624 1.023 1.436 1.82 2.436 2.388 0.997 0.563 2.092 0.875 3.286 0.936v0l0.749-0.987c-0.011 0.007-0.198-0.078-0.56-0.254-0.354-0.174-0.728-0.412-1.122-0.713-0.39-0.295-0.709-0.645-0.956-1.05v0c-0.394-0.646-0.6-1.23-0.618-1.752-0.021-0.528 0.176-1.042 0.591-1.543 0.415-0.501 1.083-1.032 2.002-1.593v0l8.125-4.887 3.084 5.057 1.709-0.817-3.159-5.181 4.359-2.658-0.596-0.977c-1.304-0.106-2.647-0.289-4.029-0.55-1.383-0.26-2.607-0.58-3.672-0.96v0l-0.993 0.606z" fill="#6ae7fd" data-fill-palette-color="accent"/><path d="M212.269 90.953c0.478 1.32 1.163 2.466 2.054 3.439 0.893 0.979 1.911 1.718 3.054 2.217v0l0.913-0.811c-0.588-0.53-1.053-1.016-1.398-1.457-0.336-0.437-0.591-0.839-0.764-1.207-0.166-0.363-0.365-0.867-0.599-1.511v0c-0.43-1.187-0.457-2.316-0.081-3.387 0.382-1.073 1.026-2.015 1.931-2.827 0.904-0.818 1.912-1.46 3.025-1.924v0l3.656 9.721c0.378-0.048 0.851-0.135 1.42-0.259 0.572-0.132 1.012-0.254 1.32-0.366v0c1.374-0.498 2.453-1.162 3.236-1.991 0.792-0.826 1.283-1.737 1.475-2.733 0.191-0.997 0.107-1.992-0.254-2.986v0c-0.487-1.344-1.345-2.516-2.573-3.517-1.228-1-2.71-1.646-4.446-1.938-1.729-0.294-3.555-0.093-5.478 0.604v0c-1.953 0.708-3.499 1.67-4.64 2.888-1.138 1.224-1.849 2.545-2.133 3.964-0.284 1.419-0.19 2.779 0.282 4.081zM228.929 84.599c0.673 1.856-0.242 3.238-2.743 4.144v0c-0.205 0.074-0.456 0.152-0.754 0.233-0.29 0.085-0.518 0.133-0.684 0.145v0l-2.754-6.161c1.26-0.381 2.375-0.54 3.346-0.476 0.979 0.068 1.771 0.296 2.375 0.684 0.604 0.388 1.009 0.865 1.214 1.431z" fill="#6ae7fd" data-fill-palette-color="accent"/><path d="M38.474 146.755l-22.997 8.51c-0.213 0.995-0.255 2.053-0.127 3.174 0.128 1.122 0.379 2.187 0.752 3.198v0c0.69 1.864 1.743 3.436 3.16 4.716 1.419 1.286 3.095 2.112 5.028 2.476 1.927 0.367 3.966 0.152 6.118-0.644v0c1.762-0.652 3.219-1.516 4.373-2.592 1.153-1.076 1.922-2.27 2.305-3.58 0.377-1.308 0.315-2.639-0.185-3.992v0c-0.416-1.124-1.095-2.073-2.037-2.845-0.942-0.772-2.096-1.425-3.463-1.959v0l-0.087-0.234 2.329-0.523 8.784-3.251 0.3-0.685-2.608-5.689-1.705 0.323zM29.91 153.841c1.821 0.782 3.051 2.039 3.691 3.771v0c0.418 1.13 0.359 2.171-0.177 3.121-0.537 0.951-1.328 1.769-2.372 2.457-1.048 0.695-2.18 1.268-3.394 1.717v0c-1.503 0.556-2.838 0.818-4.006 0.785-1.161-0.035-2.116-0.307-2.865-0.816-0.749-0.509-1.277-1.178-1.584-2.008v0c-0.338-0.914-0.526-1.829-0.564-2.744-0.032-0.918 0.085-1.665 0.349-2.242v0z" fill="#6ae7fd" data-fill-palette-color="accent"/><path d="M39.896 173.064l-8.487 5.985c-1.876 1.323-2.976 2.644-3.3 3.963-0.33 1.323-0.044 2.624 0.857 3.902v0c1.555 2.206 3.739 3.294 6.55 3.265v0l0.166 0.236-0.165 0.116c-0.802 0.565-1.283 1.25-1.446 2.055-0.167 0.808 0.059 1.653 0.68 2.533v0c0.381 0.54 0.726 0.974 1.038 1.304 0.309 0.339 0.736 0.748 1.278 1.228v0l1.641-0.91-0.418-0.976c-0.245-0.581-0.395-1.043-0.45-1.389-0.061-0.342 0.008-0.696 0.204-1.062 0.188-0.368 0.575-0.759 1.162-1.172v0l11.851-8.357 0.176-0.701-4.316-5.052-1.822 1.003 1.297 3.474-9.776 6.894c-0.765-0.128-1.458-0.372-2.082-0.732-0.619-0.355-1.202-0.921-1.749-1.697v0c-1.334-1.891-0.756-3.714 1.732-5.469v0l9.973-7.032 0.126-0.772-3.873-4.658-1.629 0.76z" fill="#6ae7fd" data-fill-palette-color="accent"/><path d="M63.205 189.697c0.354 0.325 0.772 0.543 1.252 0.654 0.481 0.102 0.954 0.084 1.421-0.053 0.47-0.142 0.872-0.395 1.206-0.759v0c0.49-0.533 0.701-1.166 0.634-1.899-0.063-0.728-0.37-1.345-0.923-1.853v0c-0.529-0.486-1.156-0.731-1.882-0.736-0.721-0.001-1.321 0.258-1.798 0.777v0c-0.334 0.364-0.556 0.786-0.667 1.267-0.116 0.477-0.107 0.951 0.026 1.421 0.133 0.462 0.377 0.855 0.731 1.181zM42.958 203.82l7.96 7.312 1.394-1.162-2.096-3.035 11.332-12.336-0.041-0.795-5.011-3.898-1.363 1.059 1.66 3.209-9.367 10.198-3.066-1.68z" fill="#6ae7fd" data-fill-palette-color="accent"/><path d="M56.795 215.611l9.021 5.884 1.208-1.359-2.558-2.644 14.258-21.859-0.173-0.755-5.701-3.122-1.169 1.281 2.318 2.959-12.682 19.442-3.34-1.18z" fill="#6ae7fd" data-fill-palette-color="accent"/><path d="M82.174 210.549l-4.565 10.368c-0.944 2.141-1.214 3.819-0.808 5.033 0.399 1.212 1.293 2.118 2.682 2.717v0c1.16 0.5 2.338 0.69 3.534 0.571 1.199-0.125 2.326-0.522 3.383-1.191v0l0.051-1.308c-0.008 0.018-0.218 0.06-0.631 0.126-0.413 0.066-0.876 0.09-1.391 0.07-0.515-0.02-0.999-0.127-1.453-0.323v0c-0.736-0.317-1.268-0.693-1.597-1.128-0.335-0.438-0.48-0.999-0.436-1.685 0.048-0.678 0.295-1.534 0.742-2.571v0l4.002-9.112 5.713 2.463 0.969-1.739-5.854-2.524 2.12-4.919-1.094-0.472c-1.181 0.699-2.444 1.355-3.791 1.968-1.346 0.613-2.586 1.084-3.719 1.412v0l-0.48 1.113z" fill="#6ae7fd" data-fill-palette-color="accent"/><path d="M110.089 210.306l-1.717 24.461c0.819 0.604 1.766 1.078 2.841 1.423 1.075 0.345 2.149 0.556 3.223 0.631v0c1.982 0.139 3.849-0.173 5.599-0.937 1.757-0.764 3.199-1.951 4.328-3.562 1.128-1.605 1.772-3.552 1.932-5.841v0c0.131-1.874-0.056-3.558-0.561-5.052-0.506-1.494-1.277-2.686-2.313-3.574-1.037-0.882-2.275-1.374-3.714-1.476v0c-1.196-0.084-2.34 0.144-3.431 0.685-1.092 0.54-2.162 1.323-3.211 2.349v0l-0.25-0.018 0.482-2.337 0.656-9.343-0.501-0.556-6.258 0.033-0.408 1.687zM113.019 221.029c1.463-1.337 3.115-1.941 4.956-1.812v0c1.202 0.084 2.126 0.567 2.771 1.448 0.645 0.881 1.066 1.938 1.262 3.173 0.202 1.242 0.258 2.508 0.167 3.8v0c-0.112 1.599-0.424 2.923-0.934 3.974-0.51 1.044-1.151 1.802-1.924 2.274-0.772 0.473-1.6 0.678-2.482 0.617v0c-0.972-0.068-1.883-0.274-2.733-0.616-0.85-0.349-1.482-0.763-1.898-1.242v0z" fill="#6ae7fd" data-fill-palette-color="accent"/><path d="M139.408 244.351c1.153-0.218 2.095-0.618 2.827-1.199 0.732-0.582 1.353-1.456 1.863-2.623 0.51-1.166 0.97-2.773 1.378-4.821v0l3.931-19.327 2.068-1.33-0.158-1.664-7.568 1.431 0.001 1.713 3.077 0.387-2.548 12.714-6.761-11.072 2.647-1.371-0.111-1.673-9.288 1.756 0.076 1.747 2.899 0.323 9.482 15.578-0.238 1.171c-0.281 1.41-0.698 2.383-1.25 2.918-0.546 0.527-1.191 0.861-1.934 1.001v0c-0.573 0.108-1.139 0.121-1.696 0.037-0.557-0.084-1.178-0.276-1.861-0.578v0c-0.394 0.505-0.638 0.988-0.733 1.45-0.095 0.462-0.096 0.941-0.002 1.439v0c0.081 0.428 0.301 0.817 0.66 1.167 0.367 0.355 0.837 0.612 1.409 0.771 0.572 0.159 1.182 0.178 1.83 0.055z" fill="#6ae7fd" data-fill-palette-color="accent"/><path d="M163.188 201.912l12.787 20.922c1.017 0.017 2.064-0.145 3.14-0.487 1.076-0.342 2.073-0.794 2.992-1.356v0c1.696-1.036 3.035-2.373 4.017-4.01 0.988-1.641 1.475-3.445 1.46-5.411-0.012-1.961-0.616-3.921-1.812-5.88v0c-0.98-1.603-2.108-2.866-3.387-3.79-1.278-0.924-2.598-1.448-3.958-1.571-1.357-0.118-2.65 0.2-3.881 0.952v0c-1.023 0.625-1.822 1.474-2.399 2.548-0.576 1.073-0.994 2.332-1.253 3.775v0l-0.214 0.131-0.963-2.184-4.884-7.992-0.73-0.162-5.079 3.656 0.646 1.611zM171.793 208.948c0.416-1.937 1.412-3.387 2.988-4.351v0c1.028-0.628 2.061-0.771 3.097-0.427 1.036 0.343 1.992 0.961 2.868 1.853 0.885 0.894 1.665 1.894 2.34 2.999v0c0.836 1.367 1.35 2.627 1.543 3.779 0.19 1.146 0.107 2.136-0.248 2.969-0.355 0.833-0.91 1.48-1.665 1.941v0c-0.831 0.508-1.693 0.869-2.583 1.083-0.894 0.208-1.65 0.238-2.267 0.09v0z" fill="#6ae7fd" data-fill-palette-color="accent"/><path d="M206.82 212.637c0.812-0.846 1.348-1.719 1.606-2.617 0.258-0.898 0.257-1.971-0.004-3.217-0.261-1.246-0.819-2.821-1.675-4.727v0l-8.012-18.022 0.912-2.283-1.093-1.263-5.334 5.557 0.994 1.394 2.731-1.471 5.302 11.835-11.931-5.095 1.36-2.653-1.06-1.298-6.546 6.819 1.075 1.379 2.549-1.419 16.761 7.186 0.485 1.092c0.589 1.312 0.814 2.346 0.676 3.101-0.139 0.746-0.47 1.392-0.994 1.938v0c-0.404 0.421-0.857 0.759-1.36 1.014-0.503 0.255-1.12 0.458-1.851 0.609v0c-0.028 0.64 0.053 1.175 0.243 1.607 0.19 0.431 0.468 0.822 0.834 1.173v0c0.314 0.302 0.72 0.491 1.215 0.567 0.505 0.076 1.036 0.013 1.594-0.189 0.558-0.202 1.066-0.541 1.523-1.017z" fill="#6ae7fd" data-fill-palette-color="accent"/><path d="M204.133 176.563l9.604 6.008c1.983 1.242 3.605 1.75 4.865 1.525 1.257-0.22 2.282-0.975 3.074-2.264v0c0.662-1.076 1.019-2.214 1.073-3.416 0.048-1.204-0.182-2.377-0.692-3.518v0l-1.287-0.239c0.016 0.01 0.028 0.224 0.034 0.642 0.006 0.418-0.037 0.88-0.13 1.387-0.094 0.507-0.27 0.971-0.528 1.392v0c-0.42 0.683-0.869 1.155-1.347 1.418-0.481 0.269-1.058 0.331-1.73 0.189-0.664-0.145-1.476-0.513-2.437-1.104v0l-8.443-5.271 3.259-5.299-1.581-1.21-3.34 5.431-4.562-2.806-0.625 1.015c0.522 1.269 0.989 2.614 1.402 4.035 0.413 1.421 0.701 2.715 0.863 3.883v0l1.032 0.635z" fill="#6ae7fd" data-fill-palette-color="accent"/><path d="M231.568 160.915c0.506-1.378 0.731-2.76 0.674-4.147-0.057-1.387-0.375-2.668-0.954-3.844v0l-1.281 0.031c0.113 0.827 0.157 1.533 0.133 2.118-0.022 0.579-0.088 1.074-0.198 1.485-0.108 0.404-0.286 0.947-0.536 1.626v0c-0.456 1.24-1.198 2.162-2.226 2.768-1.028 0.605-2.182 0.929-3.461 0.971-1.279 0.042-2.521-0.128-3.727-0.509v0l3.633-10.272c-0.336-0.219-0.777-0.47-1.322-0.753-0.545-0.282-0.977-0.482-1.296-0.599v0c-1.438-0.529-2.754-0.729-3.949-0.601-1.191 0.136-2.202 0.536-3.033 1.201-0.828 0.672-1.433 1.529-1.816 2.57v0c-0.52 1.414-0.625 2.936-0.315 4.566 0.313 1.638 1.066 3.158 2.258 4.559 1.196 1.41 2.802 2.485 4.818 3.225v0c2.04 0.75 3.931 1.021 5.673 0.815 1.736-0.209 3.199-0.788 4.388-1.737 1.187-0.943 2.032-2.101 2.537-3.473zM213.895 154.757c0.714-1.944 2.383-2.433 5.006-1.469v0c0.211 0.077 0.462 0.183 0.754 0.319 0.3 0.131 0.518 0.245 0.653 0.342v0l-1.951 6.813c-1.269-0.542-2.271-1.17-3.006-1.884-0.743-0.71-1.224-1.427-1.443-2.149-0.228-0.719-0.232-1.376-0.013-1.972z" fill="#6ae7fd" data-fill-palette-color="accent"/><path d="M8.629 122.204c0-5.91 4.791-10.7 10.701-10.701 5.91 0 10.7 4.791 10.7 10.701 0 5.91-4.791 10.7-10.7 10.7-5.91 0-10.7-4.791-10.701-10.7z" fill="#6ae7fd" data-fill-palette-color="accent"/><path d="M216.995 122.204c0-5.91 4.791-10.7 10.7-10.701 5.91 0 10.7 4.791 10.701 10.701 0 5.91-4.791 10.7-10.701 10.7-5.91 0-10.7-4.791-10.7-10.7z" fill="#6ae7fd" data-fill-palette-color="accent"/></g><g id="text-1"/></svg></g></svg></g></svg>